<svg xmlns="http://www.w3.org/2000/svg" viewBox="0 0 12 18">
  <path d="M3.112 9.058a.834.834 0 1 1 .61 1.55 2.982 2.982 0 0 0-1.889 2.775v1.45a.833.833 0 0 0 .834.834h6.666a.833.833 0 0 0 .834-.834v-1.372a3.048 3.048 0 0 0-1.964-2.85.833.833 0 1 1 .594-1.556 4.715 4.715 0 0 1 3.036 4.406v1.372a2.5 2.5 0 0 1-2.5 2.5H2.667a2.5 2.5 0 0 1-2.5-2.5v-1.45a4.649 4.649 0 0 1 2.945-4.325ZM6 .667A3.333 3.333 0 0 1 9.333 4v1.667a3.333 3.333 0 1 1-6.666 0V4A3.333 3.333 0 0 1 6 .667Zm0 1.666A1.667 1.667 0 0 0 4.333 4v1.667a1.667 1.667 0 0 0 3.334 0V4A1.667 1.667 0 0 0 6 2.333Z"/>
</svg>